PathFileType	4	(X/Y/Z)	45_2_76_p1_0-237_filt_butterworth.trc
DataRate	CameraRate	NumFrames	NumMarkers	Units	OrigDataRate	OrigDataStartFrame	OrigNumFrames
51.0	51.0	4	27	m	51.0	0	237
Frame#	Time	RHip			RKnee			RAnkle			RBigToe			RSmallToe			RHeel			LHip			LKnee			LAnkle			LBigToe			LSmallToe			LHeel			Neck			Head			Nose			RShoulder			RElbow			RWrist			RThumb			RIndex			RPinky			LShoulder			LElbow			LWrist			LThumb			LIndex			LPinky			
		X1	Y1	Z1	X2	Y2	Z2	X3	Y3	Z3	X4	Y4	Z4	X5	Y5	Z5	X6	Y6	Z6	X7	Y7	Z7	X8	Y8	Z8	X9	Y9	Z9	X10	Y10	Z10	X11	Y11	Z11	X12	Y12	Z12	X13	Y13	Z13	X14	Y14	Z14	X15	Y15	Z15	X16	Y16	Z16	X17	Y17	Z17	X18	Y18	Z18	X19	Y19	Z19	X20	Y20	Z20	X21	Y21	Z21	X22	Y22	Z22	X23	Y23	Z23	X24	Y24	Z24	X25	Y25	Z25	X26	Y26	Z26	X27	Y27	Z27	
0	0.0	0.5902069148750672	0.48518783173246627	0.9616185147460186	0.6025811864803954	0.6496523682448156	1.3307107712433481	0.6002818890908221	0.796970973722233	1.672182850795362	0.5921324229917481	0.677870920961146	1.7576371831159896	0.6567237400930149	0.6895115572510614	1.7428742530055852	0.5801161733533022	0.9158773271956406	1.7132546822408143	0.38486245624481763	0.45883170397741985	0.9815048796215371	0.42829223098203917	0.6075538827153208	1.3472231637990124	0.44079882592069947	0.831203157822973	1.6981202081822155	0.44232539924939773	0.661388678462909	1.7555405740736658	0.3904844778168128	0.7028962639808494	1.7554924797349392	0.44813450330331106	0.9102291766860556	1.7438165654699154	0.43702671648325453	0.27416930769985637	0.4390076166854853	0.4147626573353597	0.14457616433723142	0.22192631558937576	0.4349671604477844	0.08426305243131971	0.3675736503632273	0.60935191619886	0.29873735869800483	0.5153043921780579	0.6505547125757278	0.34217971445128453	0.7393014491254863	0.5252814225828439	0.2804700707290504	0.9403994383534606	0.5004882578326765	0.36885644248985994	1.0366289215086135	0.4805199266033092	0.3682568435330379	1.0429926542494021	0.46109242269726763	0.33277648193069775	1.0393165264013995	0.28765362545167006	0.2873478084232185	0.5190842834053369	0.295485782533148	0.3284254809453499	0.7560079276161232	0.44033264845787934	0.3131918149133271	0.946375562545938	0.5386352887793686	0.3727317671372554	1.0217295330133642	0.5362737784960973	0.3675062516535581	1.0465236271039788	0.4724837675284971	0.363385675473207	1.0411799317134194
1	0.0196078431372549	0.5911779368880995	0.48733024154875326	0.966112996267822	0.6027695028360975	0.6487193482839886	1.330662834997952	0.6008972674470061	0.7884031732907629	1.6704377942495658	0.5896782737967704	0.6765064854504014	1.7573324298040613	0.6523977746797814	0.7001692133691728	1.7458328231858344	0.5797901852606617	0.9172043953602733	1.7164087917837143	0.3852001724295461	0.4604813949201655	0.9828594260777761	0.42842723889306616	0.6069465892453696	1.3475590334732233	0.4409737683604271	0.8316104443579592	1.6979102426507398	0.4432148296882742	0.666073882897936	1.7564683260011311	0.3922902945202423	0.7135626557538388	1.757610332120859	0.44792317071036614	0.9114130031872463	1.7425724028490042	0.43703255689326803	0.2740338312402285	0.4391178068006836	0.4140334928935159	0.1408445697460943	0.22301657069155967	0.43523961316547305	0.084861543485091	0.3698845279615848	0.6092860938545819	0.2985142425288897	0.5149718466138836	0.6483681884175893	0.3351624264855819	0.7405196613969138	0.5252887068507125	0.2807142986370483	0.9416921875423461	0.5025637221901027	0.35933194921802786	1.0379218044994187	0.48184150426662375	0.3635065271126242	1.0444243597594434	0.4620710222925233	0.323296295482263	1.038746131755256	0.28799544633370006	0.28767340144399256	0.5218785283209997	0.2955260128972729	0.32834471707731494	0.7561866143423245	0.44034751239697867	0.31354610482745326	0.9478318922522666	0.5387426470406083	0.37347601332574526	1.0216129005741748	0.5358483022417082	0.3848491592752351	1.0457807068829317	0.4744746831345918	0.364101809830628	1.040929461026865
2	0.0392156862745098	0.5913821972687255	0.48839709459603786	0.9669896644700615	0.6028762145953357	0.6481906393708887	1.3306399592851572	0.6012199576116516	0.7840099591144307	1.66955290565914	0.588917535362414	0.6776092568996586	1.757253523533511	0.649996982014502	0.7055646887234377	1.7473600129398132	0.5796281354586372	0.9179351626476842	1.7180290278755836	0.38541181932005886	0.46136857271110465	0.9837436990990834	0.428474134116769	0.6066357390466114	1.3477187766847312	0.4410450424796454	0.8319738172017382	1.6982047939405407	0.443555072254177	0.6678536431725965	1.7568129652059108	0.39321403997212173	0.7188069416363495	1.758664057823666	0.447653810673109	0.9118161839827638	1.7409959862035254	0.43716540832418294	0.27425331085633103	0.43993237295388965	0.4132892846027324	0.13678891181363778	0.22415411908125127	0.43537481810778783	0.08511761735165832	0.37101965818772986	0.6090522800835249	0.2978635086496985	0.5132539191877811	0.6480472343118288	0.3340698186951638	0.7404351923569195	0.5253290599886025	0.28061248738445543	0.9416974109332954	0.5039756745803324	0.35338822052339036	1.0385595125709846	0.4835372789144965	0.3635553682425481	1.0456884527040788	0.46272950163383036	0.32282468927540364	1.0384244939979759	0.2881111744968713	0.2878907525287939	0.5234080089053909	0.2957173391433349	0.32860370860282195	0.756432020283086	0.4403844246403964	0.31370030824936246	0.9487598793223139	0.5387855152800027	0.37366730622608435	1.0216068171303432	0.5353862128646156	0.39362463681912085	1.0448708398647826	0.4746917986231187	0.3644508894257016	1.040839593593157
3	0.0588235294117647	0.5910580504267775	0.48848835912875965	0.9652785580360719	0.6025243902837617	0.6495311843446876	1.3308353900428833	0.6012641846634579	0.7835120840866253	1.6694678744455311	0.5891718588507693	0.6788979015810104	1.7576475588695344	0.649038440505594	0.7059378271683759	1.7475829202737219	0.5796117492659194	0.9180926621045722	1.7182182672539774	0.38551443069684865	0.46152169014286226	0.9842589058256694	0.42844132007576174	0.606633231115941	1.3477714072133802	0.4409780379996473	0.8322319629196748	1.6994182863416172	0.44319123015170364	0.6657035452499597	1.756371951229451	0.39333688990691995	0.7190911193402639	1.7587401092902615	0.4474179456390765	0.911627759934998	1.7397984533489943	0.4374438510465202	0.2749880947745544	0.4415192295812876	0.41242089096126244	0.133950877773657	0.22485818360424922	0.4354187121705552	0.08515164708547611	0.3713784503939994	0.6087136501033011	0.29696258182688373	0.5105840546375544	0.6492668090594828	0.33775456332826215	0.7388503353294281	0.52534072977824	0.2801730243276608	0.9409765154292666	0.5049425206077054	0.3509957791454279	1.0387135763683932	0.48505486621600036	0.36655416192572027	1.0464875427461395	0.46398064971700864	0.3283437198463688	1.038272922308528	0.28851522957740583	0.28790791866338344	0.5235534719289774	0.2960128908321331	0.3291472291665042	0.7566910341529066	0.44000668388999453	0.3149158801512553	0.9494874671081917	0.5388243042120361	0.3732181074666047	1.0216764542526995	0.5342992983202892	0.39454617569120826	1.0443205273397724	0.4734583083971941	0.36447631010154075	1.0408933063488512
